<?xml version="1.0"?>
<svg xmlns="http://www.w3.org/2000/svg" xmlns:xlink="http://www.w3.org/1999/xlink" xmlns:svgjs="http://svgjs.com/svgjs" version="1.1" width="512" height="512" x="0" y="0" viewBox="0 0 512 512" style="enable-background:new 0 0 512 512" xml:space="preserve" class=""><g>
<g xmlns="http://www.w3.org/2000/svg">
	<g>
		<g>
			<path d="M418.133,443.733h-128v-25.6H409.6c9.426,0,17.067-7.641,17.067-17.067V384c0-9.426-7.641-17.067-17.067-17.067h-85.333     c-9.426,0-17.067,7.641-17.067,17.067v17.067h-17.067V179.2h25.6v42.667c0,0.119,0.06,0.213,0.068,0.333     c0.013,0.968,0.195,1.927,0.538,2.833l0.06,0.154l14.857,37.129c2.564,6.509,8.859,10.778,15.855,10.752h11.29V332.8     c0,4.713,3.82,8.533,8.533,8.533s8.533-3.821,8.533-8.533v-59.733h11.29c6.988,0.023,13.276-4.237,15.846-10.735l14.857-37.137     l0.06-0.154c0.343-0.909,0.525-1.87,0.538-2.842c0-0.111,0.068-0.205,0.068-0.324V57.361c5.266-3.022,8.522-8.623,8.542-14.694     V25.6c0-14.138-11.462-25.6-25.6-25.6h-307.2c-14.138,0-25.6,11.461-25.6,25.6v17.067c0,9.426,7.641,17.067,17.067,17.067H204.8     V76.8H85.333c-9.426,0-17.067,7.641-17.067,17.067v51.2c0,9.426,7.641,17.067,17.067,17.067V204.8     c0,14.138,11.462,25.6,25.6,25.6h51.2c14.138,0,25.6-11.462,25.6-25.6v-42.667H204.8c0,9.426,7.641,17.067,17.067,17.067v264.533     h-128c-14.138,0-25.6,11.462-25.6,25.6v34.133c0,4.713,3.82,8.533,8.533,8.533h358.4c4.713,0,8.533-3.82,8.533-8.533v-34.133     C443.733,455.195,432.272,443.733,418.133,443.733z M324.267,384H409.6v17.067h-85.333V384z M170.667,204.8     c0,4.713-3.821,8.533-8.533,8.533h-51.2c-4.713,0-8.533-3.821-8.533-8.533v-42.667h68.267V204.8z M204.8,145.067h-25.6H85.333     v-51.2H204.8V145.067z M386.748,256h-39.629l-10.24-25.6h60.109L386.748,256z M401.067,213.333H332.8V179.2h68.267V213.333z      M401.067,162.133h-179.2v-102.4h179.2V162.133z M273.067,179.2v264.533h-34.133V179.2H273.067z M85.333,42.667V25.6     c0-4.713,3.82-8.533,8.533-8.533h307.2c4.713,0,8.533,3.82,8.533,8.533v17.067H85.333z M426.667,494.933H85.333v-25.6     c0-4.713,3.82-8.533,8.533-8.533h324.267c4.713,0,8.533,3.82,8.533,8.533V494.933z" fill="#ddd200" data-original="#000000" style="" class=""/>
			<path d="M256,93.867h17.067c4.713,0,8.533-3.821,8.533-8.533s-3.821-8.533-8.533-8.533H256c-4.713,0-8.533,3.82-8.533,8.533     S251.287,93.867,256,93.867z" fill="#ddd200" data-original="#000000" style="" class=""/>
			<path d="M307.2,93.867h59.733c4.713,0,8.533-3.821,8.533-8.533s-3.82-8.533-8.533-8.533H307.2c-4.713,0-8.533,3.82-8.533,8.533     S302.487,93.867,307.2,93.867z" fill="#ddd200" data-original="#000000" style="" class=""/>
			<path d="M110.933,128H179.2c4.713,0,8.533-3.82,8.533-8.533s-3.82-8.533-8.533-8.533h-68.267c-4.713,0-8.533,3.82-8.533,8.533     S106.221,128,110.933,128z" fill="#ddd200" data-original="#000000" style="" class=""/>
			<path d="M128,196.267h17.067c4.713,0,8.533-3.82,8.533-8.533s-3.82-8.533-8.533-8.533H128c-4.713,0-8.533,3.82-8.533,8.533     S123.287,196.267,128,196.267z" fill="#ddd200" data-original="#000000" style="" class=""/>
		</g>
	</g>
</g>
<g xmlns="http://www.w3.org/2000/svg">
</g>
<g xmlns="http://www.w3.org/2000/svg">
</g>
<g xmlns="http://www.w3.org/2000/svg">
</g>
<g xmlns="http://www.w3.org/2000/svg">
</g>
<g xmlns="http://www.w3.org/2000/svg">
</g>
<g xmlns="http://www.w3.org/2000/svg">
</g>
<g xmlns="http://www.w3.org/2000/svg">
</g>
<g xmlns="http://www.w3.org/2000/svg">
</g>
<g xmlns="http://www.w3.org/2000/svg">
</g>
<g xmlns="http://www.w3.org/2000/svg">
</g>
<g xmlns="http://www.w3.org/2000/svg">
</g>
<g xmlns="http://www.w3.org/2000/svg">
</g>
<g xmlns="http://www.w3.org/2000/svg">
</g>
<g xmlns="http://www.w3.org/2000/svg">
</g>
<g xmlns="http://www.w3.org/2000/svg">
</g>
</g></svg>
