<?xml version="1.0"?>
<svg xmlns="http://www.w3.org/2000/svg" xmlns:xlink="http://www.w3.org/1999/xlink" xmlns:svgjs="http://svgjs.com/svgjs" version="1.1" width="512" height="512" x="0" y="0" viewBox="0 0 60 50" style="enable-background:new 0 0 512 512" xml:space="preserve" class=""><g><g xmlns="http://www.w3.org/2000/svg" id="Page-1" fill="none" fill-rule="evenodd"><g id="094---Lathe" fill="rgb(0,0,0)" fill-rule="nonzero"><path id="Shape" d="m57 26h-11v-4h3c1.6568542 0 3-1.3431458 3-3v-2c-.0013641-.5700737-.1662161-1.127794-.475-1.607l8.332-13.878c.2723636-.47234698.1161362-1.075816-.3512161-1.35666366-.4673523-.28084767-1.0735437-.13554165-1.3627839.32666366l-8.213 13.678c-.2992556-.1038444-.6132657-.1588806-.93-.163h-4v-3c0-1.1045695-.8954305-2-2-2v-3c0-.55228475-.4477153-1-1-1s-1 .44771525-1 1v3c-1.1045695 0-2 .8954305-2 2v3c-1.6568542 0-3 1.3431458-3 3v2c.0052514 1.2667854.8056491 2.3937454 2 2.816v4.184h-7v-12h3c1.1045695 0 2-.8954305 2-2v-2c0-1.1045695-.8954305-2-2-2h-3.278c-.3544126-.61675126-1.0106732-.997855-1.722-1h-2c-.7113268.002145-1.3675874.38324874-1.722 1h-2.278v-1c0-1.65685425-1.3431458-3-3-3s-3 1.34314575-3 3v1h-2.278c-.3544126-.61675126-1.0106732-.997855-1.722-1h-2c-.7113268.002145-1.36758742.38324874-1.722 1h-6.278c-1.65685421.00000005-2.99999991 1.34314579-2.99999991 3 0 1.6568542 1.3431457 3 2.99999991 3h6v12.184c-1.19435087.4222546-1.99474861 1.5492146-2 2.816v6c0 1.6568542 1.34314575 3 3 3h2v6.667l-1.6 2.133c-.45452647.6060353-.52763841 1.4168591-.1888544 2.0944272.338784.677568 1.0313103 1.1055728 1.7888544 1.1055728h8c.7575441 0 1.4500704-.4280048 1.7888544-1.1055728.338784-.6775681.2656721-1.4883919-.1888544-2.0944272l-1.6-2.133v-6.667h28v6.667l-1.6 2.133c-.4545265.6060353-.5276384 1.4168591-.1888544 2.0944272.338784.677568 1.0313103 1.1055728 1.7888544 1.1055728h8c.7575441 0 1.4500704-.4280048 1.7888544-1.1055728.338784-.6775681.2656721-1.4883919-.1888544-2.0944272l-1.6-2.133v-6.667h1c1.6568542 0 3-1.3431458 3-3v-6c0-1.6568542-1.3431458-3-3-3zm-16-15h2v3h-2zm-3 6c0-.5522847.4477153-1 1-1h2v1c0 .5522847.4477153 1 1 1s1-.4477153 1-1v-1h2v1c0 .5522847.4477153 1 1 1s1-.4477153 1-1v-1h2c.5522847 0 1 .4477153 1 1v2c0 .5522847-.4477153 1-1 1h-10c-.5522847 0-1-.4477153-1-1zm2 5h4v4h-4zm-6-10h-3v-2h3zm-19 2h2v1c0 1.6568542 1.3431458 3 3 3s3-1.3431458 3-3v-1h2v6h-10zm10-4v2h-2v-2zm-6-3c0-.55228475.4477153-1 1-1s1 .44771525 1 1v8c0 .5522847-.4477153 1-1 1s-1-.4477153-1-1zm-2 5h-2v-2h2zm-4-3v11c0 1.1045695.8954305 2 2 2h10c1.1045695 0 2-.8954305 2-2v-11h2v17h-18v-17zm-10 3c-.55228475 0-1-.4477153-1-1s.44771525-1 1-1h6v2zm17.005 36h-8.005l1.6-2.133c.2590004-.3465293.3992827-.7673763.4-1.2v-7.667c0-.5522847.4477153-1 1-1h2c.5522847 0 1 .4477153 1 1v7.667c.0007173.4326237.1409996.8534707.4 1.2zm36 0h-8.005l1.6-2.133c.2590004-.3465293.3992827-.7673763.4-1.2v-7.667c0-.5522847.4477153-1 1-1h2c.5522847 0 1 .4477153 1 1v7.667c.0007173.4326237.1409996.8534707.4 1.2zm1.995-13c0 .5522847-.4477153 1-1 1h-1.185c-.4221309-1.1940068-1.548582-1.9943273-2.815-2h-2c-1.266418.0056727-2.3928691.8059932-2.815 2h-28.37c-.4221309-1.1940068-1.548582-1.9943273-2.815-2h-2c-1.266418.0056727-2.3928691.8059932-2.815 2h-2.185c-.55228475 0-1-.4477153-1-1v-6c0-.5522847.44771525-1 1-1h47c.5522847 0 1 .4477153 1 1z" fill="#ddd200" data-original="#000000" style=""/><path id="Shape" d="m45 32h-22c-.5522847 0-1 .4477153-1 1s.4477153 1 1 1h22c.5522847 0 1-.4477153 1-1s-.4477153-1-1-1z" fill="#ddd200" data-original="#000000" style=""/></g></g></g></svg>
