<?xml version="1.0"?>
<svg xmlns="http://www.w3.org/2000/svg" xmlns:xlink="http://www.w3.org/1999/xlink" xmlns:svgjs="http://svgjs.com/svgjs" version="1.1" width="512" height="512" x="0" y="0" viewBox="0 0 512 512" style="enable-background:new 0 0 512 512" xml:space="preserve" class=""><g><g xmlns="http://www.w3.org/2000/svg"><path d="m372.459 91-71.459 35.729v24.271h-61v30h61v24.271l71.459 35.729h49.541v90h-31v-60h-151v60h-150v-60h120v-90h-60v-30h60v-90h-120v-61h-90v512h512c0-47.337 0-371.692 0-421zm18.541 30h91v90h-91zm-60 24.271 30-15v71.459l-30-15zm-61 155.729h91v30h-91zm-90-90v30h-30v-30zm0-90h-30v-30h30zm-60-30v150h-30v-150zm-90-61h30v301h-30zm452 452h-452v-121h452zm0-151h-30v-90h30z" fill="#ddd200" data-original="#000000" style="" class=""/><path d="m60 391h30v30h-30z" fill="#ddd200" data-original="#000000" style="" class=""/><path d="m120 391h30v30h-30z" fill="#ddd200" data-original="#000000" style="" class=""/></g></g></svg>
