<svg xmlns="http://www.w3.org/2000/svg" width="152.418" height="28" viewBox="0 0 152.418 28"><defs><style>.a{fill:#e5464a;}.b{fill:#fff;fill-rule:evenodd;}</style></defs><rect class="a" width="152.418" height="28"/><path class="b" d="M24.322,12.08H31.83v7.2h7.2v7.51h-7.2v7.2H24.322v-7.2h-7.2V19.28h7.2" transform="translate(-12.804 -9.035)"/><path class="b" d="M231.014,28.628v6.895h2.029a3.468,3.468,0,0,0,2.37-.688,3.6,3.6,0,0,0,1.039-2.828,3.535,3.535,0,0,0-.819-2.506,3.093,3.093,0,0,0-2.357-.875h-2.261m-3.31-2.571h5.788a11.821,11.821,0,0,1,2.561.209,4.256,4.256,0,0,1,1.641.817,6.181,6.181,0,0,1,2.153,5.183,5.908,5.908,0,0,1-1.583,4.286,4.753,4.753,0,0,1-1.81,1.18,7.616,7.616,0,0,1-2.516.368h-2.922v4.53h-3.31V26.054ZM224.429,38.1h-3.31V21.61h3.31Zm-9.711-4.744H210.89l-.557-.013a1.282,1.282,0,0,0-.9.3,1.04,1.04,0,0,0-.335.807.889.889,0,0,0,.4.832,2.882,2.882,0,0,0,1.387.245h3.829V33.353Zm0-2.574a2.221,2.221,0,0,0-.514-1.712,3.246,3.246,0,0,0-2.007-.441h-5.607V26.054H212.2c1,0,1.687.018,2.07.053a5.941,5.941,0,0,1,1.155.234q2.738,1.04,2.609,4.966v6.786h-6.983a21.4,21.4,0,0,1-2.589-.106,3.083,3.083,0,0,1-1.266-.474,3.353,3.353,0,0,1-1.472-2.98,4.036,4.036,0,0,1,.585-2.168,2.949,2.949,0,0,1,1.543-1.286,9.208,9.208,0,0,1,2.811-.3h4.059Zm-22.633-4.724h6.386a8.888,8.888,0,0,1,2.186.207,3.227,3.227,0,0,1,1.364.759,4.721,4.721,0,0,1,1.271,3.66V38.1h-3.31V30.3a1.743,1.743,0,0,0-.4-1.286,1.81,1.81,0,0,0-1.3-.391H195.4V38.1h-3.31Zm-6.4,7.3h-3.829l-.557-.013a1.282,1.282,0,0,0-.9.3,1.04,1.04,0,0,0-.335.807.889.889,0,0,0,.4.832,2.877,2.877,0,0,0,1.384.245h3.829V33.353Zm0-2.574a2.221,2.221,0,0,0-.514-1.712,3.246,3.246,0,0,0-2.007-.441h-5.607V26.054h5.607c1,0,1.687.018,2.07.053a5.942,5.942,0,0,1,1.155.234q2.742,1.04,2.609,4.966v6.786h-6.983a21.425,21.425,0,0,1-2.589-.106,3.083,3.083,0,0,1-1.266-.474,3.353,3.353,0,0,1-1.472-2.98,4.036,4.036,0,0,1,.585-2.168,2.949,2.949,0,0,1,1.543-1.286,9.208,9.208,0,0,1,2.811-.3h4.059ZM174.091,38.1h-3.31V21.61h3.31ZM159.5,28.628v6.895h2.029a3.468,3.468,0,0,0,2.37-.688,3.6,3.6,0,0,0,1.039-2.828,3.535,3.535,0,0,0-.819-2.506,3.093,3.093,0,0,0-2.357-.875H159.5Zm-3.31-2.574h5.788a11.822,11.822,0,0,1,2.561.209,4.256,4.256,0,0,1,1.641.817,6.181,6.181,0,0,1,2.153,5.183,5.908,5.908,0,0,1-1.583,4.286,4.734,4.734,0,0,1-1.81,1.18,7.616,7.616,0,0,1-2.516.368h-2.922v4.53H156.2V26.054Zm-11.45,2.574v6.895H147.2a2.832,2.832,0,0,0,2.344-.966,3.987,3.987,0,0,0,.809-2.551q0-3.381-3.154-3.381h-2.453Zm0-2.574h2.934a7.156,7.156,0,0,1,3.141.595,4.871,4.871,0,0,1,2.38,2.5,7.006,7.006,0,0,1,.532,2.765,5.761,5.761,0,0,1-2.66,5.3,5.344,5.344,0,0,1-1.719.7,13.27,13.27,0,0,1-2.531.187h-5.387V21.61h3.31Zm-13.759-.482-2.355,5.77h4.7ZM122.13,38.1l6.827-16.484H133L139.822,38.1H135.7l-1.591-3.817h-6.27l-1.6,3.817Z" transform="translate(-91.342 -16.162)"/></svg>